<?xml version="1.0" encoding="UTF-8"?>
<svg id="_레이어_2" data-name="레이어 2" xmlns="http://www.w3.org/2000/svg" viewBox="0 0 71.38 23.88">
  <defs>
    <style>
      .cls-1 {
        fill: #ff3e3e;
      }

      .cls-2 {
        fill: #333;
      }
    </style>
  </defs>
  <g id="_레이어_2-2" data-name="레이어 2">
    <g id="_레이어_1-2" data-name="레이어 1">
      <path class="cls-2" d="M14.76,6.01c-4.55,1.82-6.77,6.99-4.94,11.55s7,6.78,11.55,4.96,6.78-7,4.95-11.56-7-6.78-11.56-4.95ZM19.09,17.43c-1.76.71-3.77-.15-4.47-1.92s.15-3.78,1.91-4.48,3.78.16,4.48,1.92-.16,3.77-1.93,4.48Z"/>
      <path class="cls-2" d="M34.31,6.08c-4.55,1.82-6.77,6.99-4.94,11.55,1.82,4.56,7,6.78,11.55,4.96,4.56-1.82,6.78-7,4.95-11.56-1.82-4.56-7-6.78-11.56-4.95ZM38.64,17.51c-1.76.71-3.77-.15-4.47-1.92s.15-3.78,1.91-4.48,3.78.16,4.48,1.92-.16,3.77-1.93,4.48Z"/>
      <path class="cls-2" d="M71.38,14v6.4c0,.78-.32,1.49-.83,2s-1.22.83-2,.83c-1.49,0-2.7-1.14-2.82-2.59-.01-.08-.01-.16-.01-.24v-6.65c0-.76-.62-1.37-1.37-1.37s-1.36.61-1.36,1.37v6.65c0,.08,0,.16-.01.24-.06.68-.36,1.3-.82,1.76-.51.51-1.22.83-2,.83-1.49,0-2.7-1.14-2.82-2.59-.01-.08-.01-.16-.01-.24v-6.65c0-.76-.61-1.37-1.37-1.37s-1.36.61-1.36,1.37v6.65c0,.08,0,.16-.01.24-.06.68-.36,1.3-.82,1.76-.51.51-1.22.83-2,.83-1.57,0-2.83-1.27-2.83-2.83v-6.4c0-3.73,2.8-7,6.52-7.26,1.58-.11,3.08.31,4.3,1.1.25.16.55.16.8,0,1.21-.79,2.68-1.2,4.24-1.11,3.74.24,6.58,3.52,6.58,7.27Z"/>
      <path class="cls-2" d="M24.1,3.33h0c1.56,0,2.83,1.27,2.83,2.83v8.07h-5.66V6.16c0-1.56,1.27-2.83,2.83-2.83Z"/>
      <path class="cls-2" d="M43.67,14.33h0c1.56,0,2.83,1.27,2.83,2.83v6.71h-5.66v-6.71c0-1.56,1.27-2.83,2.83-2.83Z" transform="translate(87.34 38.21) rotate(180)"/>
      <rect class="cls-2" x=".79" y="8.39" width="5.66" height="15.01" rx="2.83" ry="2.83"/>
      <circle class="cls-1" cx="3.62" cy="3.62" r="3.62"/>
    </g>
  </g>
</svg>